<?xml version="1.0" standalone="no"?>
<!DOCTYPE svg PUBLIC "-//W3C//DTD SVG 20010904//EN"
 "http://www.w3.org/TR/2001/REC-SVG-20010904/DTD/svg10.dtd">
<svg version="1.0" xmlns="http://www.w3.org/2000/svg"
 width="208.000000pt" height="208.000000pt" viewBox="0 0 208.000000 208.000000"
 preserveAspectRatio="xMidYMid meet">
<metadata>
Created by potrace 1.16, written by Peter Selinger 2001-2019
</metadata>
<g transform="translate(0.000000,208.000000) scale(0.100000,-0.100000)"
fill="#000000" stroke="none">
<path d="M820 2025 c-401 -91 -712 -417 -780 -820 -19 -108 -8 -351 19 -450
48 -172 135 -321 265 -451 198 -198 433 -294 716 -294 254 0 461 73 659 233
157 128 278 322 333 537 29 114 31 367 5 479 -45 188 -135 350 -272 487 -151
152 -306 237 -507 279 -89 18 -357 18 -438 0z m434 -109 c338 -95 584 -340
672 -670 35 -132 36 -300 4 -421 -90 -335 -312 -572 -630 -672 -138 -43 -263
-52 -395 -28 -347 62 -617 294 -728 625 -106 319 -18 680 225 917 140 137 257
203 453 254 89 23 309 20 399 -5z"/>
<path d="M927 1715 c-59 -22 -110 -68 -142 -127 -27 -48 -30 -62 -30 -143 1
-80 4 -96 28 -137 118 -203 416 -193 513 17 27 56 32 165 11 222 -21 56 -74
120 -123 149 -40 24 -61 28 -133 31 -58 2 -99 -2 -124 -12z"/>
<path d="M898 1067 c-112 -47 -207 -145 -273 -282 -46 -97 -65 -162 -65 -222
0 -35 6 -42 63 -85 69 -52 151 -91 237 -113 73 -19 265 -19 343 0 79 18 191
73 255 124 45 36 52 46 52 77 0 166 -155 411 -308 486 -58 29 -78 33 -157 36
-76 2 -99 -1 -147 -21z"/>
</g>
</svg>
